<?xml version="1.0" encoding="UTF-8"?>
<!DOCTYPE svg PUBLIC "-//W3C//DTD SVG 1.1//EN" "http://www.w3.org/Graphics/SVG/1.1/DTD/svg11.dtd">
<svg xmlns="http://www.w3.org/2000/svg" version="1.1" width="1280px" height="1280px" style="shape-rendering:geometricPrecision; text-rendering:geometricPrecision; image-rendering:optimizeQuality; fill-rule:evenodd; clip-rule:evenodd" xmlns:xlink="http://www.w3.org/1999/xlink">
<g><path style="opacity:0.997" fill="#3e74c3" d="M 1279.5,631.5 C 1279.5,651.167 1279.5,670.833 1279.5,690.5C 1267.7,860.57 1201.03,1004.74 1079.5,1123C 1011.27,1187.14 932.598,1234.47 843.5,1265C 832.465,1267.59 821.799,1266.59 811.5,1262C 803.822,1256.49 799.322,1248.99 798,1239.5C 798.333,1174.5 798.333,1109.5 798,1044.5C 797.149,1008.27 785.816,975.937 764,947.5C 761.318,944.65 758.484,941.984 755.5,939.5C 756.025,938.808 756.692,938.308 757.5,938C 802.353,933.897 845.687,923.564 887.5,907C 964.171,873.946 1013,816.78 1034,735.5C 1046.7,684.086 1050.04,632.086 1044,579.5C 1035.48,529.667 1014.64,486 981.5,448.5C 995.557,408.246 998.057,367.246 989,325.5C 985.398,309.865 980.898,294.532 975.5,279.5C 962.107,277.947 948.774,278.447 935.5,281C 906.415,288.045 878.748,298.711 852.5,313C 834.355,323.482 816.522,334.315 799,345.5C 692.667,316.167 586.333,316.167 480,345.5C 448.74,324.493 415.574,306.66 380.5,292C 356.769,282.119 332.102,277.786 306.5,279C 305.376,279.249 304.376,279.749 303.5,280.5C 284.485,327.497 279.985,375.831 290,425.5C 291.899,433.529 294.399,441.362 297.5,449C 253.166,498.803 231.166,557.303 231.5,624.5C 230.496,680.822 240.996,734.822 263,786.5C 289.421,840.922 330.255,880.422 385.5,905C 429.507,922.919 475.174,934.419 522.5,939.5C 505.887,956.042 494.387,975.709 488,998.5C 485.698,1007.68 483.531,1016.85 481.5,1026C 448.567,1041.56 414.233,1045.9 378.5,1039C 351.708,1032.02 329.541,1017.86 312,996.5C 300.667,980.5 289.333,964.5 278,948.5C 256.251,923.625 228.918,909.625 196,906.5C 188.12,906.209 180.62,907.709 173.5,911C 169.788,913.602 168.622,917.102 170,921.5C 172.56,926.116 175.727,930.282 179.5,934C 209.768,951.601 233.268,975.767 250,1006.5C 256.216,1018.93 261.882,1031.6 267,1044.5C 291.212,1094.4 331.046,1122.9 386.5,1130C 418.133,1133.19 449.467,1131.36 480.5,1124.5C 480.416,1155.72 480.749,1186.72 481.5,1217.5C 481.59,1226.55 481.09,1235.55 480,1244.5C 474.354,1259 463.688,1266.33 448,1266.5C 443.79,1266.36 439.624,1265.86 435.5,1265C 289.569,1214.35 175.736,1123.85 94,993.5C 37.8498,900.549 6.34979,799.883 -0.5,691.5C -0.5,664.833 -0.5,638.167 -0.5,611.5C 15.5673,425.478 94.9006,272.978 237.5,154C 372.837,47.4584 526.837,1.12507 699.5,15C 866.542,32.7676 1006.04,103.601 1118,227.5C 1218.3,343.149 1272.13,477.816 1279.5,631.5 Z"/></g>
</svg>
